<svg xmlns="http://www.w3.org/2000/svg" xmlns:xlink="http://www.w3.org/1999/xlink"
    viewBox="0 0 20 20" id="pin">
    <defs>
        <linearGradient id="a">
            <stop offset="0" stop-color="#000092"></stop>
            <stop offset="1" stop-color="#ff00f3"></stop>
        </linearGradient>
        <linearGradient id="b" x1="3.5" x2="15" y1="9.977" y2="9.977" gradientUnits="userSpaceOnUse"
            xlink:href="#a"></linearGradient>
    </defs>
    <path
        style="line-height:normal;text-indent:0;text-align:start;text-decoration-line:none;text-decoration-style:solid;text-decoration-color:#000;text-transform:none;block-progression:tb;isolation:auto;mix-blend-mode:normal"
        fill="url(#b)"
        d="M10 1.5c-3.583 0-6.5 3.035-6.5 6.7 0 1.571.958 3.436 2.076 5.228 1.119 1.792 2.428 3.478 3.233 4.484a1.472 1.472 0 0 0 2.28 0c.808-1.01 2.118-2.72 3.235-4.523 1.116-1.802 2.072-3.654 2.074-5.184C16.501 4.537 13.58 1.5 10 1.5zm0 1c3.017 0 5.492 2.558 5.4 5.686V8.199c0 1.07-.843 2.916-1.925 4.662-1.083 1.747-2.374 3.436-3.166 4.426-.223.278-.497.278-.72 0-.794-.994-2.084-2.655-3.165-4.389C5.342 11.165 4.5 9.327 4.5 8.2 4.5 5.064 6.983 2.5 10 2.5zm0 3A2.51 2.51 0 0 0 7.5 8a2.51 2.51 0 0 0 2.5 2.5A2.51 2.51 0 0 0 12.5 8 2.51 2.51 0 0 0 10 5.5zm0 1c.827 0 1.5.673 1.5 1.5s-.673 1.5-1.5 1.5S8.5 8.827 8.5 8s.673-1.5 1.5-1.5z"
        color="#000" font-family="sans-serif" font-weight="400" overflow="visible"></path>
</svg>